<svg xmlns="http://www.w3.org/2000/svg" width="1419" height="2100" viewBox="0 0 1419 2100" role="img" aria-label="Warm ivory menu paper with fine flowing gold lines along the left edge">
  <defs>
    <radialGradient id="paper" cx="72%" cy="45%" r="92%">
      <stop offset="0" stop-color="#fffdf9"/>
      <stop offset="0.72" stop-color="#fbf8f1"/>
      <stop offset="1" stop-color="#f4efe5"/>
    </radialGradient>
    <filter id="soften"><feGaussianBlur stdDeviation="0.35"/></filter>
  </defs>
  <rect width="1419" height="2100" fill="url(#paper)"/>
  <g fill="none" stroke-linecap="round" filter="url(#soften)">
    <path d="M268 -80 C226 104 92 185 21 317 C-67 480 35 615 182 774 C338 943 345 1100 168 1269 C46 1386 -75 1530 38 1673 C148 1811 373 1858 548 2140" stroke="#a47731" stroke-width="4" opacity=".9"/>
    <path d="M436 -80 C263 70 143 175 102 309 C53 469 137 601 264 767 C402 948 376 1110 224 1274 C91 1418 77 1580 178 1708 C286 1845 483 1901 685 2135" stroke="#c9a45f" stroke-width="2.8" opacity=".82"/>
    <path d="M514 -80 C351 54 197 172 151 325 C106 474 185 601 315 766 C444 931 431 1082 290 1247 C160 1398 149 1560 258 1698 C367 1836 564 1904 784 2145" stroke="#b9904b" stroke-width="1.8" opacity=".72"/>
  </g>
</svg>
